<svg width="125" height="73" viewBox="0 0 125 73" fill="none" xmlns="http://www.w3.org/2000/svg">
<path d="M82.8879 10.7989H81.1172V1.8076H77.6562V0.0776367H86.3085V1.8076H82.8879V10.7989Z" fill="white"/>
<circle cx="47.2302" cy="24.7793" r="8.31517" fill="#EB4984"/>
<circle cx="28.1886" cy="5.57115" r="4.57334" fill="#EB4984"/>
<circle cx="103.025" cy="5.40489" r="4.57334" fill="#EB4984"/>
<path d="M57.2916 60.202H41.4097L49.3922 44.6526L57.2916 60.202Z" fill="#EB4984"/>
<rect x="94.4604" y="39.2476" width="21.7857" height="20.9542" fill="#EB4984"/>
<path d="M31.4313 14.2188V17.8774H16.2146C15.4108 17.8774 13.903 18.6092 13.9695 20.5383C14.036 22.4674 15.6325 23.1437 16.464 23.3654H28.1053C30.0732 23.9475 33.7596 26.1094 33.427 30.1007C33.0944 34.092 29.9623 36.0322 28.3547 36.5034H0V32.9279H28.1053C28.6596 32.623 29.8514 31.3664 29.8514 30.1007C29.8514 27.9388 28.4933 27.4676 27.7727 26.941H15.5494C13.0548 26.6083 11.5216 24.5296 10.8929 22.8665C8.83071 17.4118 13.4706 14.5514 15.9651 14.2188H31.4313Z" fill="white"/>
<path d="M62.0314 14.468H65.6069V25.6103C65.6069 27.4397 67.27 32.4288 72.758 32.4288C78.4955 32.4288 80.2417 27.4397 80.0753 25.6103V0.498535H83.8172V25.8598C83.8172 28.5207 81.6595 36.3369 72.758 36.3369C64.0271 36.3369 61.782 28.4375 62.0314 25.6103V14.468Z" fill="white"/>
<path d="M92.6311 36.4204H88.8062V0H92.6311V36.4204Z" fill="white"/>
<path fill-rule="evenodd" clip-rule="evenodd" d="M97.7861 14.4688V36.3376H114.915C117.909 36.3376 124.977 33.4273 124.977 25.9437C124.977 16.9633 117.909 14.7182 116.246 14.5519L97.7861 14.4688ZM101.528 18.1544V32.5999H114.506C116.483 32.5999 121.152 30.6775 121.152 25.7342C121.152 19.8022 116.483 18.3192 115.385 18.2093L101.528 18.1544Z" fill="white"/>
<path fill-rule="evenodd" clip-rule="evenodd" d="M50.6089 35.9249C49.5674 36.247 48.4606 36.4204 47.3132 36.4204C41.1595 36.4204 36.1709 31.4318 36.1709 25.2781C36.1709 19.1243 41.1595 14.1357 47.3132 14.1357C53.467 14.1357 58.4555 19.1243 58.4555 25.2781C58.4555 28.8955 56.7317 32.1102 54.0607 34.1458L59.5366 45.2343H55.1295L50.6089 35.9249ZM52.2805 30.5408C53.6279 29.227 54.4645 27.3918 54.4645 25.3612C54.4645 21.3659 51.2256 18.127 47.2303 18.127C43.235 18.127 39.9961 21.3659 39.9961 25.3612C39.9961 29.3565 43.235 32.5954 47.2303 32.5954C47.8044 32.5954 48.3628 32.5285 48.8983 32.4022L45.3176 25.0285H49.5584L52.2805 30.5408Z" fill="white"/>
<path d="M34.1755 42.1578L36.1711 38.5823H16.4642C14.3854 38.5823 6.98486 41.5757 6.98486 48.8931C6.98487 58.4613 15.6326 60.7006 17.3788 60.368H32.263L38.6657 72.7576H42.8232L29.8516 47.5627H16.7968V51.3045H27.5233L30.2673 56.543H17.3788C14.9674 56.543 10.3267 54.6102 10.8098 48.8931C11.3088 42.9893 16.2147 42.1578 18.3766 42.1578H34.1755Z" fill="white"/>
<path d="M49.3922 38.3328L38.5825 60.2017H42.7401L49.3922 46.7311L56.0444 60.2017H60.202L49.3922 38.3328Z" fill="white"/>
<path d="M67.519 60.202H63.8604V38.4163H67.519L76.5826 56.2939L85.4798 38.4163H89.2216V60.202H85.4798V46.5651L78.6614 60.202H74.3375L67.519 46.5651V60.202Z" fill="white"/>
<path d="M111.601 10.7213H109.874V0H111.601L115.878 8.86006V0H117.398L117.373 10.7213H114.819L111.601 4.22674V10.7213Z" fill="white"/>
<path fill-rule="evenodd" clip-rule="evenodd" d="M116.246 60.2852H94.3774V38.4163H116.246V42.2412H97.953V56.5433H116.246V60.2852ZM106.481 50.9258V47.6189H125V50.9258H106.481Z" fill="white"/>
<path d="M20.3719 1.99238L21.2304 0.265625H11.3579C10.5853 0.265625 7.15136 1.20127 7.15137 5.44589C7.15137 9.84912 11.0145 10.7988 11.6154 10.7988H23.8916L22.9473 8.98574H11.6154C10.5853 8.98574 8.86832 7.4244 8.86832 5.27322C8.86832 3.46012 10.757 1.99238 11.7871 1.99238H20.3719Z" fill="white"/>
<path d="M76.346 1.80439V0.0776367H69.4165C68.6439 0.0776367 65.21 1.01328 65.21 5.2579C65.21 9.66113 69.0731 10.6108 69.674 10.6108L78.9459 10.6723V8.79775H69.674C68.6439 8.79775 66.9269 7.23641 66.9269 5.08523C66.9269 3.27213 68.8156 1.80439 69.8457 1.80439H76.346Z" fill="white"/>
<path fill-rule="evenodd" clip-rule="evenodd" d="M27.7949 10.8068C30.7402 10.8068 33.1279 8.41919 33.1279 5.47386C33.1279 2.52853 30.7402 0.140869 27.7949 0.140869C24.8496 0.140869 22.4619 2.52853 22.4619 5.47386C22.4619 8.41919 24.8496 10.8068 27.7949 10.8068ZM27.795 9.26484C29.9597 9.26484 31.7144 7.51005 31.7144 5.34541C31.7144 3.18077 29.9597 1.42598 27.795 1.42598C25.6304 1.42598 23.8756 3.18077 23.8756 5.34541C23.8756 7.51005 25.6304 9.26484 27.795 9.26484Z" fill="white"/>
<path fill-rule="evenodd" clip-rule="evenodd" d="M103.119 10.7295C106.064 10.7295 108.452 8.3418 108.452 5.39647C108.452 2.45114 106.064 0.0634766 103.119 0.0634766C100.174 0.0634766 97.7861 2.45114 97.7861 5.39647C97.7861 8.3418 100.174 10.7295 103.119 10.7295ZM103.119 9.18737C105.284 9.18737 107.039 7.43258 107.039 5.26794C107.039 3.1033 105.284 1.34852 103.119 1.34852C100.955 1.34852 99.2 3.1033 99.2 5.26794C99.2 7.43258 100.955 9.18737 103.119 9.18737Z" fill="white"/>
<path d="M34.6128 10.7988V0.265625H36.4185V9.01498H43.6413V10.7988H34.6128Z" fill="white"/>
<path d="M44.958 10.7988V0.265625H46.7637V9.01498H53.9865V10.7988H44.958Z" fill="white"/>
<path fill-rule="evenodd" clip-rule="evenodd" d="M63.3192 1.86119H57.3841V9.08653H63.3192V10.8929H55.4917V0.140869H63.3192V1.86119ZM63.4055 4.61347H58.5886V6.41981H63.4055V4.61347Z" fill="white"/>
</svg>
