<svg width="205" height="205" viewBox="0 0 205 205" fill="none" xmlns="http://www.w3.org/2000/svg">
<path d="M102.497 205C45.9757 205 0 159.018 0 102.503C0 45.9889 45.9757 0 102.497 0C159.018 0 205 45.9823 205 102.503C205 159.024 159.018 205 102.497 205ZM102.497 30.4135C88.2386 30.4135 74.3008 34.6414 62.4457 42.5628C50.5906 50.4841 41.3506 61.743 35.8943 74.9157C30.438 88.0884 29.0104 102.583 31.792 116.567C34.5736 130.551 41.4395 143.397 51.5215 153.479C61.6034 163.561 74.4486 170.426 88.4326 173.208C102.417 175.99 116.912 174.562 130.084 169.106C143.257 163.649 154.516 154.409 162.437 142.554C170.359 130.699 174.587 116.761 174.587 102.503C174.565 83.3904 166.964 65.0663 153.449 51.5514C139.934 38.0365 121.61 30.4346 102.497 30.4135Z" fill="white"/>
</svg>
